<?xml version="1.0" encoding="utf-8"?>
<!-- Generator: Adobe Illustrator 23.0.1, SVG Export Plug-In . SVG Version: 6.00 Build 0)  -->
<svg version="1.1" id="Layer_1" xmlns="http://www.w3.org/2000/svg" xmlns:xlink="http://www.w3.org/1999/xlink" x="0px" y="0px"
	 viewBox="0 0 309.4 221.4" enable-background="new 0 0 309.4 221.4" xml:space="preserve">
<title>Asset 2</title>
<g>
	<polygon fill="none" stroke="#000000" stroke-miterlimit="10" stroke-width="2px" points="124.12,40.76 131.21,40.76 154.7,79.11 178.19,40.76 
		185.28,40.76 255.61,40.76 224.3,0.5 85.1,0.5 53.8,40.76 	"/>
	<polygon fill="none" stroke="#000000" stroke-miterlimit="10" stroke-width="2px" points="124.12,170.62 154.7,120.7 185.28,170.62 262.17,170.62 
		308.77,110.7 262.17,50.78 185.28,50.78 154.7,100.7 124.12,50.78 47.23,50.78 0.63,110.7 47.23,170.62 	"/>
	<polygon fill="none" stroke="#000000" stroke-miterlimit="10" stroke-width="2px" points="185.28,180.64 178.19,180.64 154.7,142.29 131.21,180.64 
		124.12,180.64 53.79,180.64 85.1,220.9 224.3,220.9 255.61,180.64 	"/>
</g>
</svg>
